<?xml version="1.0" encoding="utf-8"?>
<!-- Generator: Adobe Illustrator 23.0.1, SVG Export Plug-In . SVG Version: 6.00 Build 0)  -->
<svg version="1.1" id="Layer_1" xmlns="http://www.w3.org/2000/svg" xmlns:xlink="http://www.w3.org/1999/xlink" x="0px" y="0px"
	 viewBox="0 0 612 792" style="enable-background:new 0 0 612 792;" xml:space="preserve">
<g id="qdyKUd.tif">
	<g>
		<path d="M360.2,379.5c0,0.3-0.2,0.4-0.3,0.6c-11.7,16.6-23.3,33.2-35,49.8c-4,5.7-8,11.4-12,17.1c-0.1,0.2-0.2,0.3-0.4,0.5
			c-1.3-2.1-2.7-4.2-4-6.3c-16.9-26.9-33.7-54.7-50.6-81.6c-0.4-0.6-0.2-0.8,0.2-1.1c4.4-3.1,9.1-5.6,14.3-6.9
			c6.9-1.7,13.5-0.8,19.9,2.4c5,2.5,9.4,6.9,13.7,10.6c4,3.5,7.7,7.2,11.6,10.8c0.3,0.2,0.5,0.5,0.8,0.7c1,1,2.1,1.9,3.1,2.8
			c3.4,2.9,7,5.6,10.9,7.5c4.9,2.3,9.9,2.9,15,1.2c4.1-1.4,7.7-3.8,11-6.8C359.1,380.4,359.5,379.8,360.2,379.5z"/>
	</g>
</g>
<g>
	<circle cx="353.1" cy="359" r="10"/>
	<path d="M348.5,367.9c0,0,8.1,0.3,6.6,6.1c-1.5,5.8-1.5,5.8-1.5,5.8s13.5-11.4,8.4-23.4C356.9,344.3,348.5,367.9,348.5,367.9z"/>
</g>
<path d="M245.7,360.6"/>
</svg>
